<?xml version="1.0" encoding="utf-8"?>
<svg width="20.000076px" height="16.999939px" viewBox="0 0 20.000076 16.999939" version="1.1" xmlns:xlink="http://www.w3.org/1999/xlink" xmlns="http://www.w3.org/2000/svg">
  <g id="Group">
    <path d="M14.3437 13.3921C15.07 13.1871 15.7649 12.9021 16.4091 12.5323L19.0413 13.3383C19.1891 13.384 19.3514 13.3455 19.4613 13.2385C19.5712 13.1318 19.6107 12.9746 19.5642 12.8306L18.7899 10.4453C19.5824 9.36762 20.0001 8.13971 20.0001 6.88089C20.0001 3.08659 16.2618 6.55273e-06 11.6667 6.55273e-06C7.50656 6.55273e-06 4.05888 2.53273 3.44164 5.82744C1.37326 6.90942 -3.70605e-06 8.79103 -3.70605e-06 10.9286C-3.70605e-06 12.039 0.374296 13.1203 1.08522 14.0691L0.435816 16.0687C0.389416 16.2125 0.428836 16.3698 0.538756 16.4766C0.648576 16.5831 0.810556 16.6217 0.958616 16.5763L3.19128 15.8927C4.46288 16.6178 5.94814 17 7.49996 17C10.5509 17 13.1742 15.5143 14.3437 13.3921ZM13.1979 13.6403L14.3437 13.3921C15.07 13.1871 12.6966 13.7177 13.1979 13.6403ZM3.33658 6.82467C1.81282 7.78971 0.833296 9.26978 0.833296 10.9286C0.833296 11.9239 1.19348 12.897 1.87506 13.7423C1.95958 13.8474 1.98562 13.9865 1.94464 14.1136L1.47144 15.5706L3.12016 15.0657C3.16112 15.053 3.20358 15.047 3.24546 15.047C3.32238 15.047 3.39846 15.0675 3.4652 15.108C4.64026 15.816 6.0355 16.1904 7.49996 16.1904C9.9178 16.1904 12.03 15.1652 13.1979 13.6403C12.6966 13.7177 12.1855 13.7619 11.6667 13.7619C7.07158 13.7619 3.33338 10.6752 3.33338 6.88089C3.44164 6.91051 3.48528 6.16988 3.44164 5.82744C3.44164 6.17793 3.44415 6.26192 3.44316 6.26196C3.44296 6.26197 3.44262 6.25855 3.44208 6.25321C3.43709 6.20338 3.41534 5.98633 3.33658 6.82467ZM3.33658 6.82467C3.33658 6.83144 3.33382 6.83991 3.33112 6.84823C3.32624 6.86321 3.32153 6.8777 3.33338 6.88089C3.33338 6.8619 3.33658 6.84365 3.33658 6.82467ZM16.1348 11.7472C16.2382 11.6854 16.3639 11.6695 16.48 11.7051L18.5287 12.3326L17.9313 10.4927C17.8905 10.3672 17.9155 10.2303 17.9972 10.1255C18.7621 9.14973 19.1666 8.02771 19.1666 6.88089C19.1666 3.53313 15.802 0.809632 11.6667 0.809632C7.5314 0.809632 4.16668 3.53313 4.16668 6.88089C4.16668 10.2286 7.5314 12.9524 11.6667 12.9524C13.283 12.9524 14.8279 12.5356 16.1348 11.7472Z" id="Icon4" fill="#F55661" fill-rule="evenodd" stroke="none" />
  </g>
</svg>