<?xml version="1.0" encoding="utf-8"?>
<svg width="20px" height="17px" viewBox="0 0 20 17" version="1.1" xmlns:xlink="http://www.w3.org/1999/xlink" xmlns="http://www.w3.org/2000/svg">
  <path d="M-71.6563 -324.608C-70.93 -324.813 -70.2352 -325.098 -69.591 -325.468L-66.9588 -324.662C-66.8109 -324.616 -66.6487 -324.655 -66.5388 -324.762C-66.4288 -324.868 -66.3894 -325.025 -66.4359 -325.169L-67.2102 -327.555C-66.4177 -328.632 -66 -329.86 -66 -331.119C-66 -334.913 -69.7383 -338 -74.3334 -338C-78.4935 -338 -81.9412 -335.467 -82.5584 -332.173C-84.6268 -331.091 -86.0001 -329.209 -86.0001 -327.072C-86.0001 -325.961 -85.6258 -324.88 -84.9149 -323.931L-85.5643 -321.931C-85.6107 -321.788 -85.5712 -321.63 -85.4613 -321.523C-85.3515 -321.417 -85.1895 -321.378 -85.0415 -321.424L-82.8088 -322.107C-81.5372 -321.382 -80.0519 -321 -78.5001 -321C-75.4492 -321 -72.8259 -322.486 -71.6563 -324.608ZM-72.8022 -324.36L-71.6563 -324.608C-70.93 -324.813 -73.3035 -324.282 -72.8022 -324.36ZM-82.6635 -331.175C-84.1873 -330.21 -85.1668 -328.73 -85.1668 -327.072C-85.1668 -326.076 -84.8066 -325.103 -84.125 -324.258C-84.0405 -324.153 -84.0145 -324.014 -84.0554 -323.886L-84.5286 -322.429L-82.8799 -322.934C-82.839 -322.947 -82.7965 -322.953 -82.7546 -322.953C-82.6777 -322.953 -82.6016 -322.933 -82.5349 -322.892C-81.3598 -322.184 -79.9646 -321.81 -78.5001 -321.81C-76.0823 -321.81 -73.9701 -322.835 -72.8022 -324.36C-73.3035 -324.282 -73.8146 -324.238 -74.3334 -324.238C-78.9285 -324.238 -82.6667 -327.325 -82.6667 -331.119C-82.5584 -331.09 -82.5148 -331.83 -82.5584 -332.173C-82.5584 -331.822 -82.5559 -331.738 -82.5569 -331.738C-82.5571 -331.738 -82.5575 -331.742 -82.558 -331.747C-82.563 -331.797 -82.5847 -332.014 -82.6635 -331.175ZM-82.6635 -331.175C-82.6635 -331.169 -82.6663 -331.16 -82.669 -331.152C-82.6738 -331.137 -82.6785 -331.122 -82.6667 -331.119C-82.6667 -331.138 -82.6635 -331.156 -82.6635 -331.175ZM-69.8653 -326.253C-69.7619 -326.315 -69.6362 -326.331 -69.5201 -326.295L-67.4713 -325.668L-68.0688 -327.507C-68.1096 -327.633 -68.0846 -327.77 -68.0029 -327.875C-67.2379 -328.85 -66.8335 -329.972 -66.8335 -331.119C-66.8335 -334.467 -70.198 -337.19 -74.3334 -337.19C-78.4687 -337.19 -81.8334 -334.467 -81.8334 -331.119C-81.8334 -327.771 -78.4687 -325.048 -74.3334 -325.048C-72.7171 -325.048 -71.1721 -325.465 -69.8653 -326.253Z" id="Icon4" fill="#F55661" fill-rule="evenodd" stroke="none" />
</svg>