<?xml version="1.0" encoding="utf-8"?>
<svg width="19.994843px" height="17.999908px" viewBox="0 0 19.994843 17.999908" version="1.1" xmlns:xlink="http://www.w3.org/1999/xlink" xmlns="http://www.w3.org/2000/svg">
  <g id="Group">
    <path d="M0.8333 16.7727L0.8333 1.22719C0.8333 1.00154 1.02012 0.818391 1.25012 0.818391L12.5001 0.818391L12.5001 3.10547e-06L1.25012 3.10547e-06C0.56076 3.10547e-06 0 0.550551 0 1.22719L0 16.7727C0 17.4495 0.56076 17.9999 1.25012 17.9999L17.0833 17.9999C17.7727 17.9999 18.3334 17.4495 18.3334 16.7727L18.3334 9.00013L17.5001 9.00013L17.5001 16.7727C17.5001 16.9985 17.3132 17.1817 17.0833 17.1817L1.25012 17.1817C1.02012 17.1817 0.8333 16.9985 0.8333 16.7727ZM9.87802 13.3802L19.7217 3.71536C19.898 3.54248 19.9948 3.31267 19.9948 3.06827C19.9948 2.82372 19.898 2.59384 19.7217 2.42102L17.5343 0.273297C17.358 0.100209 17.1168 0.0136651 16.8751 0.0136651C16.6333 0.0136651 16.392 0.100209 16.2159 0.273297L6.37212 9.938C6.294 10.0147 6.2501 10.1186 6.2501 10.2273L6.2501 13.0909C6.2501 13.3171 6.43646 13.4999 6.66674 13.4999L9.58338 13.4999C9.69402 13.4999 9.79982 13.4569 9.87802 13.3802ZM16.945 0.851817L19.1326 2.9994C19.1712 3.03729 19.1712 3.09903 19.1326 3.13677L18.125 4.12573L15.7976 1.84086L16.805 0.851817C16.8531 0.804657 16.8969 0.804657 16.945 0.851817ZM7.67266 9.81825L10 12.1034L17.5359 4.70446L15.2083 2.41938L7.67266 9.81825ZM9.41086 12.6819L7.0834 12.6819L7.0834 10.3967L9.41086 12.6819Z" id="Icon3" fill="#FFFFFF" fill-rule="evenodd" stroke="none" />
  </g>
</svg>