<?xml version="1.0" encoding="utf-8"?>
<svg width="19.994682px" height="17.999725px" viewBox="0 0 19.994682 17.999725" version="1.1" xmlns:xlink="http://www.w3.org/1999/xlink" xmlns="http://www.w3.org/2000/svg">
  <path d="M-65.1669 -34.2275L-65.1669 -49.773C-65.1669 -49.9986 -64.98 -50.1818 -64.75 -50.1818L-53.5001 -50.1818L-53.5001 -51.0002L-64.75 -51.0002C-65.4394 -51.0002 -66.0002 -50.4496 -66.0002 -49.773L-66.0002 -34.2275C-66.0002 -33.5507 -65.4394 -33.0003 -64.75 -33.0003L-48.9168 -33.0003C-48.2275 -33.0003 -47.6668 -33.5507 -47.6668 -34.2275L-47.6668 -42.0001L-48.5001 -42.0001L-48.5001 -34.2275C-48.5001 -34.0017 -48.6869 -33.8184 -48.9168 -33.8184L-64.75 -33.8184C-64.98 -33.8184 -65.1669 -34.0017 -65.1669 -34.2275ZM-56.1221 -37.62L-46.2785 -47.2848C-46.1021 -47.4577 -46.0053 -47.6875 -46.0053 -47.9319C-46.0053 -48.1765 -46.1021 -48.4063 -46.2785 -48.5792L-48.4659 -50.7269C-48.6422 -50.9 -48.8834 -50.9865 -49.125 -50.9865C-49.3668 -50.9865 -49.6081 -50.9 -49.7842 -50.7269L-59.628 -41.0622C-59.7062 -40.9855 -59.7501 -40.8816 -59.7501 -40.7729L-59.7501 -37.9092C-59.7501 -37.6831 -59.5637 -37.5002 -59.3334 -37.5002L-56.4168 -37.5002C-56.3061 -37.5002 -56.2003 -37.5433 -56.1221 -37.62ZM-49.0552 -50.1484L-46.8676 -48.0008C-46.829 -47.9629 -46.829 -47.9012 -46.8676 -47.8634L-47.8752 -46.8745L-50.2025 -49.1593L-49.1951 -50.1484C-49.1471 -50.1955 -49.1033 -50.1955 -49.0552 -50.1484ZM-58.3275 -41.1819L-56.0001 -38.8968L-48.4642 -46.2957L-50.7919 -48.5808L-58.3275 -41.1819ZM-56.5893 -38.3183L-58.9168 -38.3183L-58.9168 -40.6035L-56.5893 -38.3183Z" id="Icon3" fill="#FFFFFF" fill-rule="evenodd" stroke="none" />
</svg>