<?xml version="1.0" encoding="utf-8"?>
<svg width="20px" height="20px" viewBox="0 0 20 20" version="1.1" xmlns:xlink="http://www.w3.org/1999/xlink" xmlns="http://www.w3.org/2000/svg">
  <path d="M-75.9851 -424.926L-70.3333 -430.578L-70.3333 -428.667L-69.5001 -428.667L-69.5001 -431.583C-69.5001 -431.814 -69.6867 -432 -69.9167 -432L-72.8335 -432L-72.8335 -431.167L-70.9227 -431.167L-76.5744 -425.515C-76.6916 -425.398 -76.8459 -425.339 -77.0001 -425.339C-77.1543 -425.339 -77.3086 -425.398 -77.4259 -425.515L-80.5684 -428.658C-80.8482 -428.938 -81.216 -429.078 -81.5837 -429.078C-81.9512 -429.078 -82.3187 -428.938 -82.5984 -428.658L-86.5779 -424.678L-85.9887 -424.089L-82.0092 -428.069C-81.8918 -428.186 -81.7376 -428.244 -81.5834 -428.244C-81.4293 -428.244 -81.275 -428.186 -81.1576 -428.069L-78.0151 -424.926C-77.7352 -424.646 -77.3678 -424.506 -77.0001 -424.506C-76.6322 -424.506 -76.2649 -424.646 -75.9851 -424.926ZM-69.0834 -413.667L-71.5834 -413.667C-72.0436 -413.667 -72.4168 -414.04 -72.4168 -414.5L-72.4168 -425.75C-72.4168 -426.21 -72.0436 -426.583 -71.5834 -426.583L-69.0834 -426.583C-68.6231 -426.583 -68.2501 -426.21 -68.2501 -425.75L-68.2501 -414.5C-68.2501 -414.04 -68.6231 -413.667 -69.0834 -413.667ZM-71.5834 -425.75L-69.0834 -425.75L-69.0834 -424.5L-71.5834 -424.5L-71.5834 -425.75ZM-69.0834 -423.667L-71.5834 -423.667L-71.5834 -414.5L-69.0834 -414.5L-69.0834 -423.667ZM-82.4168 -422.833C-81.9565 -422.833 -81.5834 -422.46 -81.5834 -422L-81.5834 -414.5C-81.5834 -414.04 -81.9565 -413.667 -82.4168 -413.667L-84.9168 -413.667C-85.377 -413.667 -85.7501 -414.04 -85.7501 -414.5L-85.7501 -422C-85.7501 -422.46 -85.377 -422.833 -84.9168 -422.833L-82.4168 -422.833ZM-84.9168 -420.75L-82.4168 -420.75L-82.4168 -422L-84.9168 -422L-84.9168 -420.75ZM-74.9167 -420.75C-74.9167 -421.21 -75.2899 -421.583 -75.75 -421.583L-78.25 -421.583C-78.7103 -421.583 -79.0834 -421.21 -79.0834 -420.75L-79.0834 -414.5C-79.0834 -414.04 -78.7103 -413.667 -78.25 -413.667L-75.75 -413.667C-75.2899 -413.667 -74.9167 -414.04 -74.9167 -414.5L-74.9167 -420.75ZM-75.75 -419.5L-78.25 -419.5L-78.25 -420.75L-75.75 -420.75L-75.75 -419.5ZM-82.4168 -414.5L-84.9168 -414.5L-84.9168 -419.917L-82.4168 -419.917L-82.4168 -414.5ZM-78.25 -414.5L-75.75 -414.5L-75.75 -418.667L-78.25 -418.667L-78.25 -414.5ZM-87 -412L-87 -412.834L-67 -412.834L-67 -412L-87 -412Z" id="Icon5" fill="#F55661" fill-rule="evenodd" stroke="none" />
</svg>