<?xml version="1.0" encoding="utf-8"?>
<svg width="19.999977px" height="20.000061px" viewBox="0 0 19.999977 20.000061" version="1.1" xmlns:xlink="http://www.w3.org/1999/xlink" xmlns="http://www.w3.org/2000/svg">
  <g id="Group">
    <path d="M11.0149 7.07425L16.6667 1.42243L16.6667 3.33323L17.4999 3.33323L17.4999 0.416713C17.4999 0.186613 17.3133 1.25879e-05 17.0833 1.25879e-05L14.1665 1.25879e-05L14.1665 0.833353L16.0773 0.833353L10.4257 6.48509C10.3084 6.60227 10.1541 6.66085 9.99994 6.66085C9.84574 6.66085 9.69146 6.60227 9.57412 6.48509L6.4316 3.34251C6.15182 3.06223 5.78404 2.92227 5.41634 2.92263C5.04882 2.92263 4.68132 3.06259 4.40162 3.34251L0.422143 7.32203L1.01132 7.91125L4.9908 3.93165C5.10824 3.81435 5.26242 3.75583 5.41662 3.75583C5.57072 3.75583 5.725 3.81435 5.84244 3.93165L8.98494 7.07425C9.26482 7.35431 9.63224 7.49427 9.99994 7.49411C10.3678 7.49391 10.7351 7.35387 11.0149 7.07425ZM17.9166 18.3333L15.4166 18.3333C14.9565 18.3333 14.5833 17.9602 14.5833 17.5001L14.5833 6.25003C14.5833 5.78983 14.9565 5.41669 15.4166 5.41669L17.9166 5.41669C18.3769 5.41669 18.7499 5.78983 18.7499 6.25003L18.7499 17.5001C18.7499 17.9602 18.3769 18.3333 17.9166 18.3333ZM15.4166 6.25003L17.9166 6.25003L17.9166 7.50015L15.4166 7.50015L15.4166 6.25003ZM17.9166 8.33349L15.4166 8.33349L15.4166 17.5001L17.9166 17.5001L17.9166 8.33349ZM4.58322 9.16683C5.04352 9.16683 5.41662 9.53991 5.41662 10.0001L5.41662 17.5001C5.41662 17.9602 5.04352 18.3333 4.58322 18.3333L2.08324 18.3333C1.62304 18.3333 1.24994 17.9602 1.24994 17.5001L1.24994 10.0001C1.24994 9.53991 1.62304 9.16683 2.08324 9.16683L4.58322 9.16683ZM2.08324 11.2501L4.58322 11.2501L4.58322 10.0001L2.08324 10.0001L2.08324 11.2501ZM12.0833 11.2501C12.0833 10.7898 11.7101 10.4168 11.25 10.4168L8.75 10.4168C8.2897 10.4168 7.9166 10.7898 7.9166 11.2501L7.9166 17.5001C7.9166 17.9602 8.2897 18.3333 8.75 18.3333L11.25 18.3333C11.7101 18.3333 12.0833 17.9602 12.0833 17.5001L12.0833 11.2501ZM11.25 12.5001L8.75 12.5001L8.75 11.2501L11.25 11.2501L11.25 12.5001ZM4.58322 17.5001L2.08324 17.5001L2.08324 12.0832L4.58322 12.0832L4.58322 17.5001ZM8.75 17.5001L11.25 17.5001L11.25 13.3333L8.75 13.3333L8.75 17.5001ZM2.88818e-06 20.0001L2.88818e-06 19.1666L20 19.1666L20 20.0001L2.88818e-06 20.0001Z" id="Icon5" fill="#F55661" fill-rule="evenodd" stroke="none" />
  </g>
</svg>